<?xml version="1.0" encoding="UTF-8" standalone="no"?>
<!-- Created with Inkscape (http://www.inkscape.org/) -->

<svg
   xmlns:dc="http://purl.org/dc/elements/1.1/"
   xmlns:cc="http://creativecommons.org/ns#"
   xmlns:rdf="http://www.w3.org/1999/02/22-rdf-syntax-ns#"
   xmlns:svg="http://www.w3.org/2000/svg"
   xmlns="http://www.w3.org/2000/svg"
   xmlns:sodipodi="http://sodipodi.sourceforge.net/DTD/sodipodi-0.dtd"
   xmlns:inkscape="http://www.inkscape.org/namespaces/inkscape"
   width="210mm"
   height="297mm"
   viewBox="0 0 210 297"
   version="1.1"
   id="svg8"
   inkscape:version="0.92.3 (2405546, 2018-03-11)"
   sodipodi:docname="logo.svg">
  <defs
     id="defs2" />
  <sodipodi:namedview
     id="base"
     pagecolor="#ffffff"
     bordercolor="#666666"
     borderopacity="1.0"
     inkscape:pageopacity="0.0"
     inkscape:pageshadow="2"
     inkscape:zoom="0.7"
     inkscape:cx="370.12547"
     inkscape:cy="669.06676"
     inkscape:document-units="mm"
     inkscape:current-layer="g863"
     showgrid="false"
     inkscape:window-width="1920"
     inkscape:window-height="1027"
     inkscape:window-x="1912"
     inkscape:window-y="-8"
     inkscape:window-maximized="1" />
  <metadata
     id="metadata5">
    <rdf:RDF>
      <cc:Work
         rdf:about="">
        <dc:format>image/svg+xml</dc:format>
        <dc:type
           rdf:resource="http://purl.org/dc/dcmitype/StillImage" />
        <dc:title />
      </cc:Work>
    </rdf:RDF>
  </metadata>
  <g
     inkscape:label="Layer 1"
     inkscape:groupmode="layer"
     id="layer1">
    <g
       id="g915"
       transform="matrix(2.6199612,0,0,2.6199612,-178.30714,-128.61306)"
       inkscape:export-xdpi="96"
       inkscape:export-ydpi="96">
      <rect
         style="fill:#eeeeee;fill-opacity:1;stroke:none;stroke-width:0.91263211;stroke-linecap:round;stroke-linejoin:round;stroke-miterlimit:4;stroke-dasharray:none;stroke-opacity:1"
         id="rect866"
         width="51.705601"
         height="51.705601"
         x="46.371258"
         y="64.085663" />
      <g
         transform="translate(0.60088995,-0.57899995)"
         id="g891">
        <g
           id="g903">
          <path
             style="fill:#ec0c77;fill-opacity:1;stroke:none;stroke-width:3.77952766;stroke-linecap:round;stroke-linejoin:round;stroke-miterlimit:4;stroke-dasharray:none;stroke-opacity:1"
             d="m 254.82227,311.29102 a 32.829956,32.829956 0 0 0 -15.20313,27.6875 32.829956,32.829956 0 0 0 32.83008,32.83007 32.829956,32.829956 0 0 0 32.83008,-32.83007 32.829956,32.829956 0 0 0 -14.74414,-27.37305 31.314726,32.324877 0 0 1 13.22851,26.36328 31.314726,32.324877 0 0 1 -31.31445,32.32422 31.314726,32.324877 0 0 1 -31.31445,-32.32422 31.314726,32.324877 0 0 1 13.6875,-26.67773 z"
             transform="matrix(0.26458333,0,0,0.26458333,-0.60088995,0.57899995)"
             id="path831"
             inkscape:connector-curvature="0" />
          <path
             style="fill:#ec0c77;fill-opacity:1;stroke:none;stroke-width:3.77952766;stroke-linecap:round;stroke-linejoin:round;stroke-miterlimit:4;stroke-dasharray:none;stroke-opacity:1"
             d="m 276.43555,339.94531 a 9.8214286,9.8214286 0 0 0 -0.0566,1.03321 9.8214286,9.8214286 0 0 0 9.82031,9.82031 9.8214286,9.8214286 0 0 0 9.82226,-9.82031 9.8214286,9.8214286 0 0 0 -0.0566,-0.9629 9.8214286,9.8214286 0 0 1 -9.76562,8.78321 9.8214286,9.8214286 0 0 1 -9.76367,-8.85352 z"
             transform="matrix(0.26458333,0,0,0.26458333,-0.60088995,0.57899995)"
             id="path843"
             inkscape:connector-curvature="0" />
          <path
             style="fill:#ec0c77;fill-opacity:1;stroke:none;stroke-width:3.77952766;stroke-linecap:round;stroke-linejoin:round;stroke-miterlimit:4;stroke-dasharray:none;stroke-opacity:1"
             d="m 248.93555,339.94531 a 9.8214286,9.8214286 0 0 0 -0.0566,1.03321 9.8214286,9.8214286 0 0 0 9.82031,9.82031 9.8214286,9.8214286 0 0 0 9.82226,-9.82031 9.8214286,9.8214286 0 0 0 -0.0566,-0.9629 9.8214286,9.8214286 0 0 1 -9.76562,8.78321 9.8214286,9.8214286 0 0 1 -9.76367,-8.85352 z"
             transform="matrix(0.26458333,0,0,0.26458333,-0.60088995,0.57899995)"
             id="circle845"
             inkscape:connector-curvature="0" />
          <text
             id="text817"
             y="79.653854"
             x="57.375156"
             style="font-style:normal;font-weight:normal;font-size:10.58333302px;line-height:1.25;font-family:sans-serif;letter-spacing:0px;word-spacing:0px;fill:#ec0c77;fill-opacity:1;stroke:none;stroke-width:0.26458332"
             xml:space="preserve"><tspan
               id="tspan819"
               style="font-style:normal;font-variant:normal;font-weight:bold;font-stretch:normal;font-family:Arial;-inkscape-font-specification:'Arial Bold';fill:#ec0c77;fill-opacity:1;stroke-width:0.26458332"
               y="79.653854"
               x="57.375156"
               sodipodi:role="line">OINK</tspan></text>
          <text
             xml:space="preserve"
             style="font-style:normal;font-weight:normal;font-size:10.58333302px;line-height:1.25;font-family:sans-serif;letter-spacing:0px;word-spacing:0px;fill:#ec0c77;fill-opacity:1;stroke:none;stroke-width:0.26458332"
             x="49.924236"
             y="108.95684"
             id="text825"><tspan
               sodipodi:role="line"
               x="49.924236"
               y="108.95684"
               style="font-style:normal;font-variant:normal;font-weight:bold;font-stretch:normal;font-family:Arial;-inkscape-font-specification:'Arial Bold';fill:#ec0c77;fill-opacity:1;stroke-width:0.26458332"
               id="tspan823">ROYALE</tspan></text>
        </g>
      </g>
    </g>
    <g
       inkscape:export-ydpi="96"
       inkscape:export-xdpi="96"
       transform="matrix(2.6199612,0,0,2.6199612,-3.3041605,-128.99104)"
       id="g843">
      <g
         id="g863"
         inkscape:export-xdpi="96"
         inkscape:export-ydpi="96">
        <rect
           style="fill:#eeeeee;fill-opacity:0;stroke:none;stroke-width:0.45631605;stroke-linecap:round;stroke-linejoin:round;stroke-miterlimit:4;stroke-dasharray:none;stroke-opacity:1"
           id="rect823"
           width="25.8528"
           height="25.8528"
           x="51.709167"
           y="79.839714" />
        <path
           inkscape:connector-curvature="0"
           id="path825"
           d="M 58.459047,82.163371 A 11.503756,11.503756 0 0 0 53.13175,91.865038 11.503756,11.503756 0 0 0 64.635567,103.36886 11.503756,11.503756 0 0 0 76.139386,91.865038 11.503756,11.503756 0 0 0 70.972999,82.273344 10.972813,11.326774 0 0 1 75.608327,91.511349 10.972813,11.326774 0 0 1 64.635567,102.83781 10.972813,11.326774 0 0 1 53.66307,91.511349 10.972813,11.326774 0 0 1 58.459047,82.163371 Z m -2.062583,10.04047 a 3.4414702,3.4414702 0 0 0 -0.01985,0.362049 3.4414702,3.4414702 0 0 0 3.441037,3.441035 3.4414702,3.4414702 0 0 0 3.441819,-3.441035 3.4414702,3.4414702 0 0 0 -0.01985,-0.337496 3.4414702,3.4414702 0 0 1 -3.421966,3.077681 3.4414702,3.4414702 0 0 1 -3.421183,-3.102234 z m 9.636102,0 a 3.4414702,3.4414702 0 0 0 -0.01985,0.362049 3.4414702,3.4414702 0 0 0 3.441036,3.441035 3.4414702,3.4414702 0 0 0 3.441819,-3.441035 3.4414702,3.4414702 0 0 0 -0.01985,-0.337496 3.4414702,3.4414702 0 0 1 -3.421967,3.077681 3.4414702,3.4414702 0 0 1 -3.421184,-3.102234 z"
           style="fill:#ffffff;fill-opacity:1;stroke:none;stroke-width:1.32436252;stroke-linecap:round;stroke-linejoin:round;stroke-miterlimit:4;stroke-dasharray:none;stroke-opacity:1" />
      </g>
    </g>
  </g>
</svg>
