<?xml version="1.0" encoding="UTF-8" standalone="no"?>
<!-- Created with Inkscape (http://www.inkscape.org/) -->

<svg
   xmlns:dc="http://purl.org/dc/elements/1.1/"
   xmlns:cc="http://creativecommons.org/ns#"
   xmlns:rdf="http://www.w3.org/1999/02/22-rdf-syntax-ns#"
   xmlns:svg="http://www.w3.org/2000/svg"
   xmlns="http://www.w3.org/2000/svg"
   xmlns:sodipodi="http://sodipodi.sourceforge.net/DTD/sodipodi-0.dtd"
   xmlns:inkscape="http://www.inkscape.org/namespaces/inkscape"
   width="210mm"
   height="297mm"
   viewBox="0 0 210 297"
   version="1.1"
   id="svg8"
   inkscape:version="0.92.3 (2405546, 2018-03-11)"
   sodipodi:docname="ldjam_logo.svg">
  <defs
     id="defs2" />
  <sodipodi:namedview
     id="base"
     pagecolor="#ffffff"
     bordercolor="#666666"
     borderopacity="1.0"
     inkscape:pageopacity="0.0"
     inkscape:pageshadow="2"
     inkscape:zoom="0.49497475"
     inkscape:cx="341.60509"
     inkscape:cy="582.25367"
     inkscape:document-units="mm"
     inkscape:current-layer="layer1"
     showgrid="false"
     inkscape:window-width="1920"
     inkscape:window-height="1027"
     inkscape:window-x="1912"
     inkscape:window-y="-8"
     inkscape:window-maximized="1" />
  <metadata
     id="metadata5">
    <rdf:RDF>
      <cc:Work
         rdf:about="">
        <dc:format>image/svg+xml</dc:format>
        <dc:type
           rdf:resource="http://purl.org/dc/dcmitype/StillImage" />
        <dc:title></dc:title>
      </cc:Work>
    </rdf:RDF>
  </metadata>
  <g
     inkscape:label="Layer 1"
     inkscape:groupmode="layer"
     id="layer1">
    <g
       id="g873"
       transform="matrix(1.652717,0,0,1.652717,-43.855624,-146.03939)"
       inkscape:export-xdpi="96"
       inkscape:export-ydpi="96">
      <path
         style="fill:#ee5533;fill-opacity:1;stroke-width:0.52514088"
         d="m 55.834295,191.22656 c 2.762615,-2.05913 3.468847,-4.04716 3.497135,-9.84435 l 0.02579,-5.28483 -3.544701,-0.15528 -3.544701,-0.15528 v 4.50417 c 0,3.64547 -0.160278,4.56568 -0.840711,4.82679 -1.317451,0.50555 -1.768266,-0.81703 -1.776952,-5.21313 l -0.008,-4.06984 h -3.458606 -3.458606 l 0.176475,6.00259 c 0.197296,6.71077 0.731702,7.98627 4.131932,9.86196 2.34393,1.29299 6.749453,1.05632 8.800988,-0.4728 z m 17.34699,-0.006 c 0.77276,-0.57233 1.936724,-1.82184 2.586586,-2.77669 1.084909,-1.59406 1.181567,-2.33115 1.181567,-9.0104 v -7.27431 h -3.380144 -3.380143 l -0.164558,1.70671 c -0.150134,1.55712 -0.348664,1.73152 -2.265121,1.9898 -8.618609,1.16152 -10.461921,12.4443 -2.625704,16.07175 2.103927,0.97392 6.272516,0.60777 8.047517,-0.70686 z m -5.839078,-6.62917 c -0.363801,-0.94805 0.588351,-1.92975 1.87167,-1.92975 0.717767,0 0.936652,0.31774 0.813968,1.18157 -0.193175,1.36016 -2.232758,1.92836 -2.685638,0.74818 z m 22.04514,7.48938 c 3.977916,-1.50296 5.64976,-5.36639 5.325853,-12.30741 l -0.171542,-3.67598 -3.544701,-0.15528 -3.544701,-0.15528 v 4.50417 c 0,3.64547 -0.160279,4.56568 -0.840709,4.82679 -1.317452,0.50555 -1.76827,-0.81703 -1.776956,-5.21313 l -0.008,-4.06984 h -3.458604 -3.458609 l 0.176478,6.00259 c 0.148221,5.04156 0.347334,6.23113 1.243655,7.42999 2.194768,2.93557 6.527081,4.1474 10.057876,2.81338 z m -47.622349,-3.90515 v -3.93856 h -3.357231 c -2.576919,0 -3.431319,-0.19307 -3.675986,-0.83066 -0.175315,-0.45686 -0.318755,-3.17447 -0.318755,-6.03912 v -5.20846 H 30.73704 27.061053 l 0.0086,6.95812 c 0.0077,6.23071 0.131258,7.17199 1.181568,9.00401 1.733915,3.02441 3.959461,3.99323 9.173133,3.99323 h 4.340605 z M 102.68134,187.738 c 0,-4.62239 0.25201,-5.43164 1.39582,-4.48236 0.48043,0.39872 0.70475,1.90163 0.70475,4.72171 v 4.13683 h 3.41341 3.41342 V 187.738 c 0,-4.60098 0.16748,-5.18064 1.36419,-4.72142 0.5508,0.21136 0.73637,1.39331 0.73637,4.69008 v 4.40752 h 3.41342 3.41341 l -0.002,-5.64527 c -0.002,-6.33978 -0.73561,-8.32688 -3.62472,-9.8209 -1.96225,-1.01472 -6.34144,-1.0574 -7.68509,-0.0749 -0.86748,0.63431 -1.21079,0.63431 -2.43742,0 -1.92456,-0.99523 -5.37764,-0.93155 -7.637551,0.14085 -2.807734,1.33235 -3.794327,3.99542 -3.808485,10.28008 l -0.01139,5.12013 h 3.675986 3.67599 z"
         id="path850"
         inkscape:connector-curvature="0"
         sodipodi:nodetypes="cscccscccccscccccscccsscccssccscccscccccscccccscscccsssccccscccscsccccscccccccc" />
      <path
         sodipodi:nodetypes="ccscccsccsscssssscccsccscscsccccccsccsscccsccccsscc"
         inkscape:connector-curvature="0"
         id="path864"
         d="m 141.6421,190.43711 c 5.16962,-3.94747 5.16867,-12.65696 -0.002,-16.60122 -1.72881,-1.31882 -2.2744,-1.42712 -8.06578,-1.60109 l -6.21178,-0.1866 v 10.07697 10.07697 l 6.21335,-0.17527 c 5.80302,-0.16369 6.33569,-0.26868 8.06579,-1.58976 z m -6.92717,-8.30061 c 0,-1.88621 0.13296,-2.10056 1.30285,-2.10056 0.95354,0 1.39165,0.35382 1.63407,1.31967 0.38635,1.53937 -0.52233,2.88145 -1.95093,2.88145 -0.80022,0 -0.98599,-0.39575 -0.98599,-2.10056 z m 27.83247,4.54136 c 0,-4.7705 -0.14493,-5.65139 -1.18335,-7.1923 -3.22867,-4.79102 -10.27463,-5.05845 -13.5114,-0.51282 -2.31381,3.24945 -2.03718,7.74091 0.64578,10.48511 2.31481,2.36764 3.05419,2.58485 8.92885,2.62304 l 5.12012,0.0333 z m -9.27618,-2.21353 c -0.1737,-0.45265 -0.064,-1.07481 0.24376,-1.38258 0.81683,-0.81683 2.20559,-0.0998 2.20559,1.13883 0,1.29511 -1.97065,1.49123 -2.44935,0.24375 z m 17.15329,3.4031 c 0,-4.23636 0.004,-4.24819 1.57543,-4.8414 1.52013,-0.57378 1.57542,-0.71042 1.57542,-3.89294 0,-3.07406 -0.0803,-3.29743 -1.18157,-3.28575 -2.63549,0.0279 -5.37919,1.05437 -6.9119,2.58577 -1.59711,1.59575 -1.62431,1.71144 -1.79811,7.65066 l -0.17648,6.03041 h 3.45861 3.4586 z m 17.59466,0.96462 -2.97395,-3.28214 2.92989,-0.15749 c 2.88467,-0.15506 2.9299,-0.18233 2.9299,-1.76649 0,-2.21161 -1.97086,-5.52474 -4.05135,-6.81055 -2.0953,-1.29497 -5.68815,-1.40227 -7.9412,-0.23717 -1.90318,0.98417 -4.01046,3.66048 -4.49539,5.70925 -0.44477,1.87917 0.42196,5.08762 1.87252,6.93171 1.75621,2.23266 3.81043,2.85165 9.53935,2.87445 l 5.16419,0.0206 z m -6.36715,-4.30727 c -0.36954,-0.96303 0.16831,-1.86314 1.1133,-1.86314 0.9657,0 1.39009,0.76312 0.99581,1.7906 -0.40083,1.04455 -1.71872,1.08987 -2.10911,0.0725 z"
         style="fill:#f79122;fill-opacity:1;stroke-width:0.52514088" />
    </g>
    <rect
       y="99.507439"
       x="13.418154"
       height="19.276785"
       width="58.39732"
       id="rect866"
       style="fill:#1f2429;fill-opacity:1;stroke:none;stroke-width:2.11666656;stroke-linecap:round;stroke-linejoin:miter;stroke-miterlimit:4;stroke-dasharray:none;stroke-opacity:1" />
    <g
       id="g826"
       transform="translate(-4.9136905,48.947917)" />
  </g>
</svg>
